<?xml version="1.0" encoding="UTF-8" standalone="no"?>
<!-- Created with Inkscape (http://www.inkscape.org/) -->

<svg
   width="297mm"
   height="210mm"
   viewBox="0 0 297 210"
   version="1.1"
   id="svg1"
   inkscape:version="1.3 (0e150ed6c4, 2023-07-21)"
   sodipodi:docname="GearWorldTitle.svg"
   inkscape:export-filename="GearWorldTitle-logo.png"
   inkscape:export-xdpi="96"
   inkscape:export-ydpi="96"
   xmlns:inkscape="http://www.inkscape.org/namespaces/inkscape"
   xmlns:sodipodi="http://sodipodi.sourceforge.net/DTD/sodipodi-0.dtd"
   xmlns:xlink="http://www.w3.org/1999/xlink"
   xmlns="http://www.w3.org/2000/svg"
   xmlns:svg="http://www.w3.org/2000/svg">
  <sodipodi:namedview
     id="namedview1"
     pagecolor="#ffffff"
     bordercolor="#000000"
     borderopacity="0.25"
     inkscape:showpageshadow="2"
     inkscape:pageopacity="0.0"
     inkscape:pagecheckerboard="0"
     inkscape:deskcolor="#d1d1d1"
     inkscape:document-units="mm"
     inkscape:zoom="0.36213173"
     inkscape:cx="-78.700643"
     inkscape:cy="434.92461"
     inkscape:window-width="1920"
     inkscape:window-height="1009"
     inkscape:window-x="1917"
     inkscape:window-y="-8"
     inkscape:window-maximized="1"
     inkscape:current-layer="layer1" />
  <defs
     id="defs1" />
  <g
     inkscape:label="Layer 1"
     inkscape:groupmode="layer"
     id="layer1">
    <text
       xml:space="preserve"
       style="font-style:normal;font-variant:normal;font-weight:bold;font-stretch:normal;font-size:38.1px;font-family:Monospace;-inkscape-font-specification:'Monospace Bold';display:none;fill:#0c7650;fill-opacity:1;stroke:none;stroke-width:2.5;stroke-linejoin:round;stroke-opacity:1"
       x="3.9518855"
       y="265.03198"
       id="text3"><tspan
         sodipodi:role="line"
         id="tspan3"
         style="font-style:italic;font-variant:normal;font-weight:bold;font-stretch:normal;font-size:38.1px;font-family:Monospace;-inkscape-font-specification:'Monospace Bold Italic';fill:#0c7650;fill-opacity:1;stroke-width:2.5"
         x="3.9518855"
         y="265.03198">for Mini 4WD</tspan></text>
    <path
       id="InvoluteGear002_f0121"
       d="m 211.0444,106.97547 v -3.95238 c -1.03275,-0.57588 -2.0991,-1.11177 -3.19633,-1.5696 -0.85341,-0.35612 -1.72552,-0.66503 -2.6153,-0.91164 -0.63555,-0.17636 -1.28012,-0.32086 -1.93281,-0.42154 -0.39163,-0.0609 -0.78618,-0.10583 -1.18156,-0.11379 -0.13181,-0.002 -0.26374,-9.8e-4 -0.39572,0.005 l -3.66423,0.3436 -0.99039,-6.252946 3.59102,-0.805701 c 0.12737,-0.03415 0.25326,-0.07449 0.37785,-0.117761 0.37366,-0.129704 0.73491,-0.294112 1.08861,-0.473314 0.5895,-0.2981 1.15788,-0.634476 1.70788,-0.998444 0.76999,-0.509731 1.50396,-1.072811 2.20556,-1.6752 0.90206,-0.774538 1.75061,-1.613698 2.55487,-2.480506 l -1.22137,-3.758958 c -1.16016,-0.22869 -2.33993,-0.408458 -3.52495,-0.505168 -0.92168,-0.07509 -1.84655,-0.09899 -2.769,-0.0586 -0.65889,0.02845 -1.31655,0.09045 -1.96857,0.196264 -0.39122,0.06315 -0.78041,0.14222 -1.15884,0.257135 -0.12618,0.03983 -0.25116,0.08078 -0.37485,0.126862 l -3.37876,1.458903 -2.87422,-5.640883 3.16629,-1.875951 c 0.1102,-0.07281 0.21787,-0.149047 0.323,-0.228691 0.31528,-0.238362 0.60797,-0.506875 0.88911,-0.786425 0.46853,-0.465348 0.90513,-0.961186 1.31575,-1.477278 0.57485,-0.722596 1.09884,-1.48507 1.57995,-2.274795 0.61857,-1.015344 1.16627,-2.07563 1.6633,-3.148546 l -2.32318,-3.197581 c -1.17402,0.141083 -2.3517,0.334504 -3.50851,0.608876 -0.89973,0.213332 -1.78684,0.476155 -2.65167,0.79968 -0.61773,0.230967 -1.22411,0.493222 -1.81162,0.794845 -0.35254,0.180904 -0.69825,0.376602 -1.02269,0.602562 -0.10818,0.07509 -0.21396,0.154167 -0.31727,0.236655 l -2.76258,2.431581 -4.47668,-4.476662 2.4316,-2.762557 c 0.0824,-0.103538 0.16117,-0.209349 0.23654,-0.317436 0.22607,-0.324264 0.42149,-0.670145 0.60257,-1.022683 0.3018,-0.587486 0.56377,-1.193859 0.79482,-1.811611 0.32342,-0.864817 0.58616,-1.751934 0.79969,-2.651624 0.27455,-1.156825 0.4678,-2.334471 0.60892,-3.508477 l -3.1976,-2.323151 c -1.07294,0.497204 -2.13327,1.044699 -3.14862,1.663245 -0.78971,0.481277 -1.55221,1.005105 -2.27477,1.579962 -0.5161,0.410734 -1.01183,0.847181 -1.47734,1.315714 -0.27932,0.281029 -0.54773,0.573833 -0.78642,0.889109 -0.0796,0.105246 -0.15588,0.212762 -0.22864,0.323126 l -1.87597,3.166646 -5.64094,-2.874172 1.45889,-3.378772 c 0.0466,-0.123448 0.0887,-0.248603 0.12692,-0.374894 0.1148,-0.378308 0.19376,-0.767596 0.25709,-1.158817 0.10549,-0.651998 0.16724,-1.309684 0.19609,-1.968565 0.0403,-0.922446 0.016,-1.847281 -0.0588,-2.768985 -0.0964,-1.184986 -0.27654,-2.364738 -0.50507,-3.524919 l -3.75899,-1.221336 c -0.86683,0.804231 -1.70601,1.652778 -2.48051,2.554856 -0.6024,0.701605 -1.16566,1.435521 -1.67521,2.205507 -0.36397,0.550111 -0.70053,1.118426 -0.99846,1.707902 -0.17874,0.353846 -0.3436,0.714974 -0.47319,1.08856 -0.0432,0.124584 -0.0824,0.250309 -0.11764,0.377739 l -0.80573,3.590965 -6.25304,-0.99037 0.34338,-3.664181 c 0.005,-0.131981 0.008,-0.263962 0.004,-0.395943 -0.008,-0.395374 -0.0529,-0.789895 -0.1136,-1.181514 -0.10123,-0.652737 -0.24565,-1.297283 -0.42184,-1.93284 -0.24666,-0.889735 -0.55557,-1.761834 -0.91166,-2.615273 -0.45783,-1.097207 -0.99373,-2.163522 -1.56961,-3.196274 h -3.95244 c -0.57588,1.032752 -1.11178,2.099067 -1.56962,3.196274 -0.35613,0.853439 -0.66499,1.725538 -0.91166,2.615273 -0.17618,0.635557 -0.32063,1.280103 -0.42183,1.93284 -0.0606,0.391391 -0.10583,0.78614 -0.11361,1.181514 -0.002,0.131981 -9e-4,0.263962 0.004,0.395943 l 0.34339,3.664181 -6.25304,0.99037 -0.80573,-3.590965 c -0.0353,-0.12743 -0.0745,-0.253155 -0.11765,-0.377739 -0.12959,-0.373757 -0.29439,-0.734885 -0.47319,-1.08856 -0.29785,-0.589476 -0.63442,-1.157906 -0.99837,-1.707902 -0.50956,-0.769986 -1.07282,-1.503958 -1.67522,-2.205507 -0.7745,-0.902078 -1.61369,-1.750625 -2.48052,-2.554856 l -3.75899,1.221336 c -0.22858,1.160181 -0.40869,2.339933 -0.50505,3.524919 -0.0749,0.921704 -0.0992,1.846539 -0.0588,2.768985 0.029,0.658881 0.0907,1.316567 0.19609,1.968565 0.0632,0.391393 0.14228,0.780395 0.25703,1.158817 0.0381,0.126291 0.0806,0.251446 0.12692,0.374894 l 1.45891,3.378772 -5.64095,2.874172 -1.87597,-3.166237 c -0.0728,-0.110369 -0.14905,-0.217884 -0.22864,-0.323125 -0.23871,-0.315163 -0.5071,-0.607967 -0.78642,-0.88911 -0.46552,-0.46876 -0.96124,-0.905094 -1.47735,-1.315714 -0.72255,-0.574857 -1.48505,-1.098856 -2.27478,-1.579961 -1.01535,-0.618547 -2.07567,-1.166269 -3.1486,-1.663246 l -3.19759,2.323151 c 0.14114,1.174005 0.33439,2.351652 0.60891,3.508478 0.21356,0.899689 0.47622,1.786806 0.79967,2.651624 0.23104,0.617751 0.49306,1.224124 0.79482,1.81161 0.18109,0.352708 0.3765,0.698248 0.60258,1.022683 0.0754,0.108089 0.15417,0.213901 0.23654,0.317436 l 2.43161,2.762558 -4.47669,4.47666 -2.76258,-2.43158 c -0.10335,-0.08248 -0.20912,-0.160994 -0.31726,-0.236655 -0.32444,-0.225847 -0.67018,-0.421543 -1.02269,-0.602562 -0.58752,-0.301509 -1.19389,-0.563764 -1.81163,-0.794845 -0.86483,-0.323125 -1.75193,-0.586122 -2.65167,-0.799681 -1.1568,-0.2742 -2.33449,-0.467621 -3.508497,-0.608875 L 96.7336,69.835527 c 0.497035,1.072915 1.044728,2.133201 1.663289,3.148544 0.481115,0.789725 1.005103,1.5522 1.579962,2.274797 0.410619,0.515977 0.847169,1.011816 1.315739,1.477277 0.28114,0.279321 0.57382,0.547835 0.88911,0.786426 0.10515,0.07964 0.21276,0.155873 0.32302,0.22869 l 3.16627,1.875951 -2.8742,5.640882 -3.378788,-1.458903 c -0.123672,-0.04551 -0.248658,-0.08874 -0.374836,-0.12686 -0.37843,-0.114915 -0.767623,-0.19399 -1.158839,-0.257137 -0.652017,-0.105245 -1.309676,-0.16725 -1.96857,-0.196264 -0.922448,-0.03983 -1.847324,-0.01707 -2.769006,0.05917 -1.185018,0.09615 -2.364774,0.276477 -3.524944,0.505169 l -1.22137,3.758957 c 0.804256,0.866809 1.652811,1.706026 2.554869,2.480502 0.701599,0.6024 1.435569,1.165648 2.205565,1.6752 0.550002,0.364091 1.118381,0.700523 1.707867,0.998454 0.353681,0.178631 0.714989,0.3436 1.088611,0.473303 0.124593,0.0455 0.250489,0.08246 0.377857,0.117762 l 3.591021,0.805713 -0.990386,6.25294 -3.664238,-0.3436 c -0.131985,-0.006 -0.263914,-0.006 -0.39572,-0.004 -0.395384,0.006 -0.789935,0.0512 -1.181554,0.11377 -0.652697,0.10122 -1.297266,0.24576 -1.932822,0.42154 -0.889771,0.24689 -1.761871,0.5558 -2.615285,0.91164 -1.097238,0.45795 -2.163587,0.99373 -3.196342,1.56961 v 3.95237 c 1.032755,0.57588 2.099104,1.11178 3.196342,1.56961 0.853414,0.35612 1.725514,0.66502 2.615285,0.91169 0.635556,0.17636 1.280125,0.32086 1.932822,0.42155 0.391619,0.0609 0.78617,0.10582 1.181554,0.11378 0.131806,0.002 0.263735,9e-4 0.39572,-0.004 l 3.664238,-0.34361 0.990386,6.25301 -3.591021,0.8057 c -0.127368,0.0341 -0.253264,0.0745 -0.377857,0.11776 -0.373644,0.1297 -0.734908,0.29468 -1.088611,0.47331 -0.589486,0.2981 -1.157865,0.63454 -1.707867,0.99844 -0.769996,0.50973 -1.503966,1.07281 -2.205565,1.6752 -0.902058,0.77453 -1.750613,1.6137 -2.554869,2.4805 l 1.22137,3.75896 c 1.16017,0.22869 2.339926,0.40903 3.524944,0.50518 0.921682,0.0751 1.846558,0.099 2.769006,0.0586 0.658894,-0.0284 1.316553,-0.0904 1.96857,-0.19626 0.391227,-0.0631 0.780409,-0.14223 1.158839,-0.25713 0.126178,-0.0398 0.251164,-0.0808 0.374836,-0.12687 l 3.378788,-1.4589 2.8742,5.64094 -3.16627,1.87595 c -0.11021,0.0728 -0.21789,0.14905 -0.32302,0.22869 -0.31528,0.23894 -0.60796,0.50688 -0.88911,0.78643 -0.46859,0.46535 -0.90513,0.96119 -1.315739,1.47733 -0.574859,0.72254 -1.098847,1.48501 -1.579962,2.27474 -0.618561,1.01534 -1.166264,2.07569 -1.663289,3.1486 l 2.323183,3.19753 c 1.174017,-0.14108 2.351697,-0.33451 3.508497,-0.60887 0.89974,-0.21334 1.78684,-0.47617 2.65168,-0.79969 0.61773,-0.23096 1.2241,-0.49321 1.81162,-0.79483 0.35254,-0.18092 0.69824,-0.3766 1.02269,-0.60257 0.10819,-0.0751 0.21396,-0.15416 0.31726,-0.23665 l 2.76258,-2.43159 4.47669,4.4766 -2.43161,2.76256 c -0.0824,0.10359 -0.16115,0.20935 -0.23653,0.31744 -0.22608,0.32426 -0.42149,0.67019 -0.60257,1.02269 -0.30181,0.58753 -0.56383,1.19391 -0.79483,1.81159 -0.32341,0.86482 -0.58614,1.75194 -0.79968,2.65169 -0.27455,1.15677 -0.4678,2.33448 -0.60891,3.50842 l 3.19759,2.32321 c 1.07293,-0.4972 2.13325,-1.04476 3.1486,-1.6633 0.78973,-0.48128 1.55224,-1.00511 2.27479,-1.57996 0.51609,-0.41074 1.01184,-0.84712 1.47734,-1.31572 0.27932,-0.28102 0.54773,-0.57377 0.78643,-0.8891 0.0796,-0.10527 0.15588,-0.21277 0.22864,-0.32314 l 1.87596,-3.16628 5.64096,2.87423 -1.45891,3.37871 c -0.0466,0.12344 -0.0887,0.2486 -0.12693,0.37489 -0.1148,0.37831 -0.19375,0.76766 -0.25707,1.15882 -0.1055,0.65206 -0.16726,1.30969 -0.19611,1.96857 -0.0404,0.92245 -0.016,1.84734 0.0589,2.76898 0.0964,1.18506 0.27654,2.36473 0.50506,3.52492 l 3.759,1.22134 c 0.86683,-0.80425 1.70601,-1.65278 2.48052,-2.55481 0.6024,-0.7016 1.16566,-1.43557 1.6752,-2.20556 0.36398,-0.55011 0.70053,-1.11837 0.99845,-1.70785 0.17874,-0.35385 0.34362,-0.71497 0.47321,-1.08861 0.0432,-0.12458 0.0825,-0.25031 0.11765,-0.37773 l 0.80571,-3.59097 6.25304,0.99037 -0.34338,3.66419 c -0.005,0.13197 -0.008,0.26395 -0.004,0.39594 0.008,0.39537 0.0529,0.78995 0.11362,1.18157 0.10122,0.65268 0.24564,1.29723 0.42182,1.93278 0.24667,0.88979 0.55559,1.76189 0.91165,2.61527 0.45785,1.09721 0.99375,2.16358 1.56963,3.19634 h 3.95244 c 0.57588,-1.03276 1.11178,-2.09913 1.56963,-3.19634 0.35612,-0.85338 0.66498,-1.72549 0.91165,-2.61527 0.17619,-0.63555 0.32062,-1.2801 0.42183,-1.93278 0.0606,-0.3914 0.10583,-0.7862 0.11362,-1.18157 0.003,-0.13199 8.9e-4,-0.26397 -0.004,-0.39594 l -0.3434,-3.66419 6.25305,-0.99037 0.80571,3.59097 c 0.0353,0.12742 0.0745,0.25315 0.11764,0.37773 0.12959,0.37375 0.29441,0.7349 0.47321,1.08861 0.29793,0.58948 0.63449,1.15785 0.99845,1.70785 0.50956,0.76999 1.07282,1.50396 1.67521,2.20556 0.7745,0.90203 1.61369,1.75056 2.48053,2.55481 l 3.75899,-1.22134 c 0.22858,-1.16019 0.40868,-2.33987 0.50506,-3.52492 0.0749,-0.92165 0.0992,-1.84654 0.0588,-2.76898 -0.029,-0.65888 -0.0907,-1.31652 -0.1961,-1.96857 -0.0632,-0.3914 -0.14228,-0.78038 -0.25708,-1.15882 -0.0381,-0.12629 -0.0804,-0.25087 -0.12692,-0.37489 l -1.45891,-3.37871 5.64096,-2.87423 1.87596,3.16628 c 0.0728,0.11032 0.14906,0.21788 0.22864,0.32314 0.23871,0.31516 0.50712,0.60796 0.78643,0.8891 0.46552,0.46877 0.96123,0.90515 1.47734,1.31572 0.72255,0.57485 1.48505,1.09886 2.27478,1.57996 1.01535,0.61854 2.07568,1.16627 3.14862,1.6633 l 3.19757,-2.32321 c -0.14113,-1.17394 -0.33438,-2.35165 -0.60891,-3.50842 -0.21355,-0.89975 -0.47621,-1.78687 -0.79967,-2.65169 -0.23103,-0.61768 -0.49306,-1.22406 -0.79482,-1.81159 -0.18109,-0.35272 -0.3765,-0.69826 -0.60258,-1.02269 -0.0754,-0.10808 -0.15417,-0.2139 -0.23654,-0.31744 l -2.43161,-2.76256 4.47669,-4.4766 2.76258,2.43159 c 0.10335,0.0824 0.20912,0.161 0.31726,0.23665 0.32444,0.22641 0.67018,0.42155 1.02269,0.60257 0.58752,0.3015 1.19389,0.56375 1.81163,0.79483 0.86483,0.32313 1.75193,0.58612 2.65168,0.79969 1.15679,0.27477 2.33448,0.46761 3.50849,0.60887 l 2.32319,-3.19753 c -0.49705,-1.07291 -1.04473,-2.13326 -1.66329,-3.1486 -0.48113,-0.78973 -1.00511,-1.5522 -1.57996,-2.27474 -0.41063,-0.51598 -0.84717,-1.01187 -1.31575,-1.47733 -0.28114,-0.27933 -0.57382,-0.54784 -0.88911,-0.78643 -0.10516,-0.0797 -0.21276,-0.15587 -0.32302,-0.22869 l -3.16627,-1.87595 2.8742,-5.64094 3.37879,1.4589 c 0.12367,0.0455 0.24866,0.0888 0.37484,0.12687 0.37842,0.1149 0.76761,0.19399 1.15884,0.25713 0.65202,0.10527 1.30968,0.16726 1.96857,0.19626 0.92244,0.0398 1.84732,0.0171 2.769,-0.0586 1.18503,-0.0962 2.36479,-0.27649 3.52495,-0.50518 l 1.22137,-3.75896 c -0.80426,-0.8668 -1.6528,-1.70597 -2.55486,-2.4805 -0.70161,-0.60239 -1.43558,-1.16564 -2.20557,-1.6752 -0.55001,-0.36407 -1.11839,-0.70052 -1.70787,-0.99843 -0.35369,-0.17863 -0.71499,-0.34361 -1.08862,-0.47331 -0.12459,-0.0455 -0.25047,-0.0825 -0.37786,-0.11776 l -3.591,-0.8057 0.99038,-6.25301 3.66424,0.34361 c 0.13198,0.005 0.2639,0.005 0.39572,0.004 0.39538,-0.005 0.78992,-0.0512 1.18156,-0.11378 0.65269,-0.10123 1.29726,-0.24576 1.93282,-0.42154 0.88978,-0.2469 1.76187,-0.5558 2.61528,-0.91169 1.09724,-0.45795 2.1636,-0.99374 3.19635,-1.56961 z"
       stroke="#191919"
       stroke-width="0.35 px"
       style="fill:#cccccc;fill-opacity:1;fill-rule:evenodd;stroke:#000000;stroke-width:2.5;stroke-linecap:square;stroke-linejoin:bevel;stroke-miterlimit:4;stroke-dasharray:none;stroke-opacity:1" />
    <text
       xml:space="preserve"
       style="font-style:normal;font-variant:normal;font-weight:bold;font-stretch:normal;font-size:35.2778px;font-family:Monospace;-inkscape-font-specification:'Monospace Bold';display:inline;fill:#000000;fill-opacity:1;stroke:none;stroke-width:2.5;stroke-linejoin:round;stroke-opacity:1"
       id="text2"><textPath
         xlink:href="#path4-5"
         id="textPath5"
         style="font-size:35.2778px"> Gear World</textPath></text>
    <text
       xml:space="preserve"
       style="font-weight:bold;font-size:35.2778px;font-family:monospace;-inkscape-font-specification:'monospace Bold';fill:#000000;fill-opacity:1;stroke:none;stroke-width:2.5;stroke-linejoin:round;stroke-opacity:1"
       id="text1"><textPath
         xlink:href="#path4"
         id="textPath4"
         style="font-style:normal;font-variant:normal;font-weight:bold;font-stretch:normal;font-size:35.2778px;font-family:Monospace;-inkscape-font-specification:'Monospace Bold';fill:#000000;fill-opacity:1;stroke:none;stroke-width:2.5;stroke-opacity:1">  My First</textPath></text>
    <path
       style="display:none;fill:none;fill-opacity:1;stroke:#000000;stroke-width:2.5;stroke-linejoin:bevel;stroke-dasharray:none;stroke-dashoffset:0;stroke-opacity:1"
       d="m 71.005311,105.00002 c 0,0 0.595752,-78.634987 77.494729,-78.269673 76.89898,0.365314 77.49472,78.269673 77.49472,78.269673"
       id="path4"
       sodipodi:nodetypes="czc" />
    <path
       style="display:none;fill:none;fill-opacity:1;stroke:#000000;stroke-width:2.5;stroke-linejoin:bevel;stroke-dasharray:none;stroke-dashoffset:0;stroke-opacity:1"
       d="m 225.99412,104.99457 c 0,0 -1.69169,78.26967 -77.49473,78.26967 -75.803036,0 -77.494719,-78.26967 -77.494719,-78.26967"
       id="path4-5"
       sodipodi:nodetypes="czc" />
  </g>
</svg>
